<svg width="1800" height="390" viewBox="0 0 1800 390" fill="none" xmlns="http://www.w3.org/2000/svg">
<path d="M461.804 280.504C450.541 275.371 441.634 268.369 435.074 259.516C429.374 251.819 425.983 243.338 424.908 234.07C424.647 231.824 426.388 229.836 428.649 229.836H459.22C461.473 229.836 463.364 231.426 463.872 233.621C465.262 239.623 468.724 244.756 474.265 249.021C480.933 254.16 489.295 256.728 499.355 256.728C509.848 256.728 517.991 254.71 523.787 250.661C529.576 246.618 532.478 241.426 532.478 235.082C532.478 228.309 529.25 223.276 522.803 219.996C516.351 216.716 506.129 213.11 492.14 209.175C478.581 205.46 467.541 201.851 459.015 198.351C450.489 194.857 443.109 189.498 436.879 182.283C430.648 175.067 427.533 165.557 427.533 153.749C427.533 144.132 430.37 135.334 436.059 127.35C441.742 119.371 449.885 113.084 460.491 108.491C471.094 103.9 483.285 101.605 497.058 101.605C517.608 101.605 534.169 106.802 546.744 117.181C558.318 126.746 564.936 139.51 566.596 155.465C566.828 157.694 565.096 159.653 562.854 159.653H533.657C531.363 159.653 529.438 158.006 528.982 155.757C527.708 149.467 524.611 144.315 519.688 140.303C513.783 135.496 505.8 133.087 495.747 133.087C485.907 133.087 478.365 134.948 473.117 138.663C466.139 143.612 463.8 150.681 466.103 159.869C466.267 160.523 466.571 161.156 466.983 161.69C470.983 166.869 476.419 170.731 483.285 173.263C488.31 175.124 495.747 177.476 505.586 180.314C518.703 183.815 529.471 187.365 537.889 190.973C546.302 194.58 553.574 199.885 559.699 206.879C565.817 213.878 568.988 223.168 569.209 234.755C569.209 245.035 566.364 254.216 560.681 262.303C554.995 270.394 546.96 276.733 536.578 281.324C526.191 285.915 513.999 288.213 500.011 288.213C485.794 288.213 473.063 285.64 461.804 280.504Z" fill="black"/>
<path d="M725.424 162.28C720.283 153.096 713.559 146.102 705.254 141.29C696.941 136.483 687.981 134.075 678.362 134.075C668.738 134.075 659.775 136.426 651.47 141.125C643.158 145.829 636.433 152.718 631.3 161.787C626.159 170.863 623.594 181.628 623.594 194.092C623.594 206.553 626.159 217.488 631.3 226.888C636.433 236.29 643.214 243.449 651.632 248.369C660.048 253.286 668.959 255.746 678.362 255.746C687.981 255.746 696.941 253.343 705.254 248.531C713.559 243.724 720.283 236.673 725.424 227.379C730.557 218.089 733.13 207.208 733.13 194.747C733.13 182.286 730.557 171.462 725.424 162.28ZM596.537 145.881C604.079 131.892 614.353 121.014 627.365 113.249C640.369 105.491 654.856 101.608 670.818 101.608C684.809 101.608 697.219 104.45 708.04 110.134C718.864 115.822 727.226 122.711 733.13 130.795V109.335C733.13 106.697 735.269 104.558 737.907 104.558H766.07C768.708 104.558 770.846 106.697 770.846 109.335V366.41C770.846 369.048 768.708 371.186 766.07 371.186H737.907C735.269 371.186 733.13 369.048 733.13 366.41V259.026C727.226 267.117 718.7 274.004 707.549 279.687C696.399 285.37 683.716 288.216 669.507 288.216C653.979 288.216 639.826 284.229 627.036 276.245C614.245 268.266 604.079 257.116 596.537 242.793C588.993 228.476 585.222 212.241 585.222 194.092C585.222 175.947 588.993 159.876 596.537 145.881Z" fill="black"/>
<path d="M970.564 109.329V280.48C970.564 283.118 968.425 285.256 965.788 285.256H937.951C935.313 285.256 933.175 283.118 933.175 280.48V263.94C927.273 271.376 919.567 277.221 910.056 281.485C900.543 285.75 890.429 287.881 879.72 287.881C865.503 287.881 852.769 284.93 841.513 279.026C830.25 273.121 821.394 264.381 814.948 252.789C808.496 241.204 805.273 227.208 805.273 210.811V109.329C805.273 106.691 807.411 104.552 810.049 104.552H837.557C840.194 104.552 842.333 106.691 842.333 109.329V205.236C842.333 221.419 846.374 233.824 854.465 242.459C862.552 251.098 873.595 255.413 887.59 255.413C901.579 255.413 912.678 251.098 920.878 242.459C929.077 233.824 933.175 221.419 933.175 205.236V109.329C933.175 106.691 935.313 104.552 937.951 104.552H965.788C968.425 104.552 970.564 106.691 970.564 109.329Z" fill="black"/>
<path d="M1134.38 162.28C1129.24 153.096 1122.52 146.102 1114.21 141.29C1105.9 136.483 1096.94 134.075 1087.32 134.075C1077.7 134.075 1068.73 136.426 1060.43 141.125C1052.12 145.829 1045.39 152.718 1040.26 161.787C1035.12 170.863 1032.55 181.628 1032.55 194.092C1032.55 206.553 1035.12 217.488 1040.26 226.888C1045.39 236.29 1052.17 243.449 1060.59 248.369C1069.01 253.286 1077.92 255.746 1087.32 255.746C1096.94 255.746 1105.9 253.343 1114.21 248.531C1122.52 243.724 1129.24 236.673 1134.38 227.379C1139.52 218.089 1142.09 207.208 1142.09 194.747C1142.09 182.286 1139.52 171.462 1134.38 162.28ZM1005.5 145.881C1013.04 131.892 1023.31 121.014 1036.32 113.249C1049.33 105.491 1063.71 101.608 1079.45 101.608C1093.66 101.608 1106.07 104.394 1116.67 109.969C1127.28 115.544 1135.75 122.49 1142.09 130.795V109.335C1142.09 106.697 1144.23 104.558 1146.87 104.558H1175.03C1177.67 104.558 1179.81 106.697 1179.81 109.335V280.486C1179.81 283.124 1177.67 285.262 1175.03 285.262H1146.87C1144.23 285.262 1142.09 283.124 1142.09 280.486V258.37C1135.75 266.896 1127.11 274.004 1116.18 279.687C1105.25 285.37 1092.78 288.216 1078.79 288.216C1063.27 288.216 1049.06 284.229 1036.16 276.245C1023.26 268.266 1013.04 257.116 1005.5 242.793C997.953 228.476 994.182 212.241 994.182 194.092C994.182 175.947 997.953 159.876 1005.5 145.881Z" fill="black"/>
<path d="M1355.41 161.786C1350.27 152.717 1343.5 145.828 1335.08 141.125C1326.66 136.426 1317.64 134.074 1308.02 134.074C1298.62 134.074 1289.71 136.483 1281.3 141.289C1272.88 146.101 1266.1 153.095 1260.96 162.279C1255.82 171.461 1253.26 182.285 1253.26 194.746C1253.26 207.208 1255.82 218.088 1260.96 227.378C1266.1 236.673 1272.88 243.723 1281.3 248.53C1289.71 253.342 1298.62 255.745 1308.02 255.745C1317.64 255.745 1326.66 253.286 1335.08 248.368C1343.5 243.448 1350.27 236.29 1355.41 226.887C1360.55 217.487 1363.12 206.552 1363.12 194.091C1363.12 181.627 1360.55 170.862 1355.41 161.786ZM1279.33 109.969C1290.36 104.393 1302.66 101.607 1316.22 101.607C1332.18 101.607 1346.61 105.434 1359.51 113.087C1372.41 120.741 1382.58 131.614 1390.01 145.718C1397.44 159.819 1401.16 175.946 1401.16 194.091C1401.16 212.241 1397.44 228.475 1390.01 242.793C1382.58 257.115 1372.35 268.266 1359.35 276.244C1346.34 284.228 1331.96 288.215 1316.22 288.215C1302.23 288.215 1289.82 285.478 1279 280.015C1268.18 274.553 1259.59 267.551 1253.26 259.025V280.485C1253.26 283.123 1251.12 285.262 1248.48 285.262H1220.64C1218.01 285.262 1215.87 283.123 1215.87 280.485V47.3508C1215.87 44.7128 1218.01 42.5748 1220.64 42.5748H1248.48C1251.12 42.5748 1253.26 44.7128 1253.26 47.3508V131.45C1259.59 122.71 1268.28 115.544 1279.33 109.969Z" fill="black"/>
<path d="M1564.65 161.786C1559.51 152.717 1552.73 145.828 1544.32 141.125C1535.9 136.426 1526.88 134.074 1517.26 134.074C1507.86 134.074 1498.95 136.483 1490.54 141.289C1482.11 146.101 1475.34 153.095 1470.2 162.279C1465.06 171.461 1462.49 182.285 1462.49 194.746C1462.49 207.208 1465.06 218.088 1470.2 227.378C1475.34 236.673 1482.11 243.723 1490.54 248.53C1498.95 253.342 1507.86 255.745 1517.26 255.745C1526.88 255.745 1535.9 253.286 1544.32 248.368C1552.73 243.448 1559.51 236.29 1564.65 226.887C1569.79 217.487 1572.36 206.552 1572.36 194.091C1572.36 181.627 1569.79 170.862 1564.65 161.786ZM1488.57 109.969C1499.6 104.393 1511.9 101.607 1525.46 101.607C1541.42 101.607 1555.85 105.434 1568.75 113.087C1581.65 120.741 1591.82 131.614 1599.25 145.718C1606.68 159.819 1610.4 175.946 1610.4 194.091C1610.4 212.241 1606.68 228.475 1599.25 242.793C1591.82 257.115 1581.59 268.266 1568.59 276.244C1555.58 284.228 1541.2 288.215 1525.46 288.215C1511.47 288.215 1499.06 285.478 1488.24 280.015C1477.42 274.553 1468.83 267.551 1462.49 259.025V280.485C1462.49 283.123 1460.36 285.262 1457.72 285.262H1429.88C1427.25 285.262 1425.11 283.123 1425.11 280.485V47.3508C1425.11 44.7128 1427.25 42.5748 1429.88 42.5748H1457.72C1460.36 42.5748 1462.49 44.7128 1462.49 47.3508V131.45C1468.83 122.71 1477.52 115.544 1488.57 109.969Z" fill="black"/>
<path d="M1671.72 47.3488V280.483C1671.72 283.121 1669.59 285.26 1666.95 285.26H1639.11C1636.47 285.26 1634.34 283.121 1634.34 280.483V47.3488C1634.34 44.7108 1636.47 42.5728 1639.11 42.5728H1666.95C1669.59 42.5728 1671.72 44.7108 1671.72 47.3488Z" fill="black"/>
<path d="M1766.99 109.314C1774.94 104.817 1784.19 102.285 1794.74 101.727C1797.2 101.596 1799.3 103.537 1799.3 106.006V135.529C1799.3 138.167 1797.16 140.306 1794.52 140.306H1789.79C1775.13 140.306 1764.04 144.027 1756.5 151.456C1748.95 158.892 1745.18 171.791 1745.18 190.157V280.486C1745.18 283.124 1743.05 285.262 1740.41 285.262H1712.57C1709.94 285.262 1707.8 283.124 1707.8 280.486V109.335C1707.8 106.697 1709.94 104.559 1712.57 104.559H1740.41C1743.05 104.559 1745.18 106.697 1745.18 109.335V130.795C1750.65 121.614 1757.92 114.455 1766.99 109.314Z" fill="black"/>
<path d="M247.494 12.5697V94.9528C247.494 101.894 241.866 107.522 234.924 107.522H85.272C78.33 107.522 72.702 113.15 72.702 120.092V220.121C72.702 227.783 64.248 232.574 57.769 228.484C23.052 206.566 0 167.863 0 123.761C0 89.5928 13.856 58.6388 36.233 36.2467C58.624 13.8557 89.565 -0.000244141 123.733 -0.000244141H234.924C241.866 -0.000244141 247.494 5.62775 247.494 12.5697Z" fill="black"/>
<path d="M320.194 265.242C320.641 333.765 262.769 389.825 194.245 389.825H85.2731C78.3311 389.825 72.7031 384.197 72.7031 377.255V294.875C72.7031 287.933 78.3311 282.305 85.2731 282.305H176.106C189.394 282.305 202.401 286.138 213.567 293.343L237.338 308.683C241.72 311.511 247.495 308.365 247.495 303.149V169.714C247.495 162.04 255.966 157.261 262.453 161.362C270.251 166.292 277.461 172.071 283.946 178.557C306.165 200.775 319.973 231.405 320.194 265.242Z" fill="#00CD0B"/>
<path d="M125.809 198.679C125.809 206.794 119.229 213.373 111.115 213.373C102.998 213.373 96.4191 206.794 96.4191 198.679C96.4191 190.563 102.998 183.985 111.115 183.985C119.229 183.985 125.809 190.563 125.809 198.679Z" fill="black"/>
<path d="M174.799 198.679C174.799 206.794 168.219 213.373 160.105 213.373C151.988 213.373 145.409 206.794 145.409 198.679C145.409 190.563 151.988 183.985 160.105 183.985C168.219 183.985 174.799 190.563 174.799 198.679Z" fill="black"/>
<path d="M223.779 198.679C223.779 206.794 217.199 213.373 209.085 213.373C200.968 213.373 194.389 206.794 194.389 198.679C194.389 190.563 200.968 183.985 209.085 183.985C217.199 183.985 223.779 190.563 223.779 198.679Z" fill="black"/>
</svg>
